<svg width="16" height="16" viewBox="0 0 16 16" fill="none" xmlns="http://www.w3.org/2000/svg">
<path d="M3.07794 12.8647L7.12489 4.08614C7.14109 4.0505 7.19511 4.07188 7.18251 4.10931L4.27807 12.4218C4.71203 12.2864 5.15678 12.175 5.61055 12.0876L7.53903 4.21268C7.54804 4.17437 7.60566 4.18595 7.60026 4.22427L6.47846 11.9513C6.84849 11.9067 7.22482 11.8782 7.60386 11.8657L7.96939 4.25902C7.97119 4.21981 8.02971 4.21981 8.03151 4.25902L8.39704 11.8657C8.77698 11.8773 9.15241 11.9058 9.52244 11.9513L8.40064 4.22427C8.39524 4.18595 8.45196 4.17437 8.46186 4.21268L10.3904 12.0876C10.8441 12.175 11.2889 12.2872 11.7228 12.4218L8.81839 4.10931C8.80579 4.07278 8.85981 4.0505 8.87601 4.08614L12.923 12.8647C13.654 13.1784 14.3491 13.5589 15 14L8 2L1 14C1.65003 13.5589 2.34508 13.1784 3.07704 12.8647" fill="#C5A063"/>
</svg>
